<?xml version="1.0" encoding="utf-8"?>
<!-- Svg Vector Icons : http://www.onlinewebfonts.com/icon -->
<!DOCTYPE svg PUBLIC "-//W3C//DTD SVG 1.1//EN" "http://www.w3.org/Graphics/SVG/1.1/DTD/svg11.dtd">
<svg version="1.1" xmlns="http://www.w3.org/2000/svg" xmlns:xlink="http://www.w3.org/1999/xlink" x="0px" y="0px" viewBox="0 0 256 256" enable-background="new 0 0 256 256" xml:space="preserve">
<metadata> Svg Vector Icons : http://www.onlinewebfonts.com/icon </metadata>
<g><g><g><path fill="#fff" d="M61.6,35.8H17.4c-2.1,0-3.9,0.7-5.3,2.1C10.7,39.2,10,41,10,43.2v44.3c0,2.1,0.7,3.9,2.1,5.3c1.4,1.4,3.2,2.1,5.3,2.1c2.1,0,3.9-0.7,5.3-2.1c1.4-1.4,2.1-3.2,2.1-5.3V50.6h36.9c2.1,0,3.9-0.7,5.3-2.1c1.4-1.4,2.1-3.2,2.1-5.3s-0.7-3.9-2.1-5.3C65.5,36.5,63.8,35.8,61.6,35.8z M238.6,161.2c-2.1,0-3.9,0.7-5.3,2.1c-1.4,1.4-2.1,3.2-2.1,5.3v36.9h-36.9c-2.1,0-3.9,0.7-5.3,2.1c-1.4,1.4-2.1,3.2-2.1,5.3c0,2.1,0.7,3.9,2.1,5.3c1.4,1.4,3.2,2.1,5.3,2.1h44.3c2.1,0,3.9-0.7,5.3-2.1c1.4-1.4,2.1-3.2,2.1-5.3v-44.3c0-2.1-0.7-3.9-2.1-5.3C242.6,161.8,240.8,161.2,238.6,161.2z M61.6,205.4H24.8v-36.9c0-2.1-0.7-3.9-2.1-5.3c-1.4-1.4-3.2-2.1-5.3-2.1s-3.9,0.7-5.3,2.1c-1.4,1.4-2.1,3.2-2.1,5.3v44.3c0,2.1,0.7,3.9,2.1,5.3c1.4,1.4,3.2,2.1,5.3,2.1h44.3c2.1,0,3.9-0.7,5.3-2.1s2.1-3.2,2.1-5.3c0-2.1-0.7-3.9-2.1-5.3C65.6,206.2,63.8,205.4,61.6,205.4z M238.6,35.8h-44.3c-2.1,0-3.9,0.7-5.3,2.1c-1.4,1.4-2.1,3.2-2.1,5.3c0,2.1,0.7,3.9,2.1,5.3c1.4,1.4,3.2,2.1,5.3,2.1h36.9v36.9c0,2.1,0.7,3.9,2.1,5.3c1.4,1.4,3.2,2.1,5.3,2.1c2.1,0,3.9-0.7,5.3-2.1c1.4-1.4,2.1-3.2,2.1-5.3V43.2c0-2.1-0.7-3.9-2.1-5.3S240.8,35.8,238.6,35.8z"/></g></g></g>
</svg>